<?xml version="1.0" standalone="no"?>
<!DOCTYPE svg PUBLIC "-//W3C//DTD SVG 20010904//EN"
 "http://www.w3.org/TR/2001/REC-SVG-20010904/DTD/svg10.dtd">
<svg version="1.0" xmlns="http://www.w3.org/2000/svg"
 width="500.000000pt" height="500.000000pt" viewBox="0 0 500.000000 500.000000"
 preserveAspectRatio="xMidYMid meet">

<g transform="translate(0.000000,500.000000) scale(0.100000,-0.100000)"
fill="#d40000" stroke="none">
<path d="M1906 4775 l-47 -65 -265 0 c-254 0 -264 1 -264 19 0 11 -7 27 -16
36 -20 20 -44 3 -44 -31 0 -21 -5 -24 -37 -24 -47 0 -66 -12 -61 -36 2 -15 14
-20 52 -22 l48 -3 -7 -406 -8 -406 -30 -43 c-35 -50 -31 -79 9 -71 l26 5 -7
-302 c-9 -419 -28 -1868 -26 -1940 2 -53 -1 -63 -31 -100 -34 -42 -205 -268
-378 -498 l-95 -127 -362 -1 -363 0 0 -30 0 -30 335 0 c184 0 335 -4 335 -8 0
-4 -5 -13 -10 -18 -15 -15 -1 -44 20 -44 10 0 30 16 44 35 l27 35 234 0 234 0
3 -57 c2 -47 6 -58 22 -61 26 -5 36 15 36 71 l0 47 1408 0 c775 0 1612 3 1860
7 l452 6 0 24 0 23 -1544 0 -1543 0 4 23 c3 16 -15 42 -69 102 -40 45 -163
182 -273 304 -110 123 -219 245 -243 270 l-43 46 7 600 c3 330 9 852 13 1160
l7 560 70 98 c38 54 76 109 84 121 30 44 316 459 366 529 l50 72 160 6 c87 4
446 7 797 8 l637 1 0 -268 c0 -148 -3 -371 -7 -495 l-6 -227 -40 -11 c-132
-35 -213 -153 -211 -306 1 -60 6 -84 33 -137 37 -76 93 -129 157 -147 l44 -13
0 -49 c0 -38 -4 -49 -19 -55 -18 -7 -367 -319 -420 -376 -20 -21 -22 -28 -11
-41 7 -8 17 -15 22 -15 6 0 325 284 358 320 3 3 18 16 34 30 l29 25 -7 -100
c-4 -55 -13 -204 -20 -331 -8 -128 -17 -238 -21 -245 -5 -8 -99 -151 -210
-319 -258 -390 -257 -389 -251 -406 3 -8 14 -14 25 -14 19 0 30 16 315 450
144 220 143 219 149 200 3 -8 28 -154 57 -325 77 -459 82 -489 97 -505 11 -12
15 -12 29 2 14 14 15 24 5 80 -13 71 -43 246 -96 553 -53 306 -54 327 -39 567
7 117 13 233 14 258 l0 45 31 -49 c17 -27 64 -106 104 -175 200 -349 192 -336
218 -325 33 12 42 -5 -245 482 -109 186 -102 166 -92 244 l9 70 55 18 c77 26
142 97 170 186 24 78 25 111 6 182 -28 105 -94 182 -184 214 l-35 13 6 365 c4
201 7 425 7 498 l0 132 43 0 c52 0 83 19 73 45 -6 17 -46 18 -867 11 l-860 -8
31 46 c33 48 36 79 9 84 -11 2 -33 -21 -63 -63z m-98 -142 c-8 -10 -41 -56
-73 -103 -32 -47 -119 -173 -194 -280 -74 -107 -153 -221 -174 -252 -22 -32
-41 -58 -43 -58 -2 0 -4 160 -4 355 l0 355 252 0 c238 0 250 -1 236 -17z
m1714 -1008 c68 12 171 -86 199 -190 15 -55 4 -158 -23 -212 -26 -51 -85 -109
-134 -129 -49 -20 -54 -18 -54 25 0 39 -12 53 -37 43 -7 -2 -13 -19 -13 -37 0
-19 -4 -36 -8 -39 -5 -3 -31 5 -58 18 -177 82 -206 348 -53 480 43 37 115 60
136 44 6 -5 26 -6 45 -3z m-2077 -2375 c76 -85 168 -189 204 -230 36 -40 91
-101 121 -135 30 -33 68 -75 84 -93 l30 -32 -302 0 -302 0 0 238 c0 254 8 428
20 415 4 -4 69 -78 145 -163z m-220 -267 l-7 -223 -209 0 -209 0 22 34 c13 19
86 117 163 218 76 101 162 213 190 249 l50 67 3 -62 c2 -33 1 -161 -3 -283z"/>
<path d="M3350 3535 c0 -3 8 -18 17 -32 11 -17 14 -28 7 -30 -6 -2 -20 -10
-30 -18 -28 -20 -10 -30 19 -10 24 15 25 15 41 -22 15 -35 16 -36 12 -8 -2 17
-7 37 -10 45 -4 10 7 24 30 40 20 13 31 26 25 28 -6 2 -23 -6 -38 -18 l-27
-21 -15 26 c-14 22 -31 33 -31 20z"/>
<path d="M3530 3519 c0 -6 11 -24 25 -41 14 -16 25 -33 25 -38 0 -5 -11 -22
-25 -38 -40 -48 -27 -60 19 -17 l26 24 20 -39 c11 -22 25 -40 30 -40 17 0 11
19 -20 62 l-31 42 31 29 c28 26 38 47 23 47 -4 0 -19 -12 -34 -26 l-27 -26
-24 36 c-23 36 -38 46 -38 25z"/>
<path d="M3303 3324 c-9 -23 11 -70 28 -65 8 1 24 4 35 5 13 0 20 6 16 14 -2
8 -11 10 -21 7 -9 -4 -22 -9 -28 -12 -9 -3 -13 4 -13 21 0 18 4 24 15 20 11
-5 13 -2 9 10 -8 21 -33 21 -41 0z"/>
<path d="M3400 3290 c0 -5 19 -10 43 -10 31 0 38 3 27 10 -20 13 -70 13 -70 0z"/>
<path d="M3615 3290 c-7 -11 0 -13 27 -11 18 2 42 -34 33 -49 -10 -16 -38 -11
-65 10 -33 26 -35 25 -37 -11 -2 -26 0 -29 13 -18 12 10 20 9 40 -2 31 -16 57
-3 62 30 6 40 -54 82 -73 51z"/>
<path d="M3534 3275 c21 -16 32 -13 21 4 -3 6 -14 11 -23 11 -15 -1 -15 -2 2
-15z"/>
<path d="M3431 3234 c19 -18 90 -44 102 -37 5 3 -17 16 -50 29 -69 28 -72 29
-52 8z"/>
</g>
</svg>
