<?xml version="1.0" standalone="no"?>
<!DOCTYPE svg PUBLIC "-//W3C//DTD SVG 20010904//EN"
 "http://www.w3.org/TR/2001/REC-SVG-20010904/DTD/svg10.dtd">
<svg version="1.0" xmlns="http://www.w3.org/2000/svg"
 width="500.000000pt" height="500.000000pt" viewBox="0 0 500.000000 500.000000"
 preserveAspectRatio="xMidYMid meet">

<g transform="translate(0.000000,500.000000) scale(0.100000,-0.100000)"
fill="#ff2a2a" stroke="none">
<path d="M1906 4775 l-47 -65 -265 0 c-254 0 -264 1 -264 19 0 11 -7 27 -16
36 -20 20 -44 3 -44 -31 0 -21 -5 -24 -37 -24 -47 0 -66 -12 -61 -36 2 -15 14
-20 52 -22 l48 -3 -7 -406 -8 -406 -30 -43 c-35 -50 -31 -79 9 -71 l26 5 -7
-292 c-8 -404 -28 -1878 -26 -1950 2 -53 -1 -63 -31 -100 -36 -44 -151 -196
-348 -459 l-125 -166 -362 -1 -363 0 0 -30 0 -30 335 0 c184 0 335 -4 335 -8
0 -4 -5 -13 -10 -18 -15 -15 -1 -44 20 -44 10 0 30 16 44 35 l27 35 234 0 234
0 3 -57 c2 -47 6 -58 22 -61 26 -5 36 15 36 71 l0 47 1565 1 c861 1 1570 3
1575 4 6 1 138 3 295 4 l285 1 0 25 0 25 -1544 0 -1543 0 4 23 c3 16 -15 42
-69 102 -40 45 -163 182 -273 304 -110 123 -219 245 -243 270 l-43 46 7 595
c3 327 9 849 13 1160 l7 565 70 98 c38 54 76 109 84 121 30 44 316 459 366
529 l50 72 165 6 c90 3 449 7 797 8 l632 1 0 -268 c0 -148 -3 -371 -7 -495
l-6 -227 -40 -11 c-131 -35 -212 -153 -211 -304 2 -201 166 -340 340 -290 84
24 155 97 183 190 25 79 26 111 7 183 -28 105 -94 182 -184 214 l-35 13 6 365
c4 201 7 425 7 498 l0 132 43 0 c52 0 83 19 73 45 -6 17 -46 18 -867 11 l-860
-8 31 46 c33 48 36 79 9 84 -11 2 -33 -21 -63 -63z m-98 -142 c-8 -10 -41 -56
-73 -103 -32 -47 -119 -173 -194 -280 -74 -107 -153 -221 -174 -252 -22 -32
-41 -58 -43 -58 -2 0 -4 160 -4 355 l0 355 252 0 c238 0 250 -1 236 -17z
m1714 -1008 c68 12 171 -86 199 -190 27 -98 -10 -224 -84 -292 -75 -68 -154
-80 -242 -39 -178 82 -207 348 -54 480 43 37 115 60 136 44 6 -5 26 -6 45 -3z
m-2038 -2420 c55 -60 129 -144 165 -185 36 -40 91 -101 121 -135 30 -33 68
-75 84 -93 l30 -32 -302 0 -302 0 0 238 c0 132 3 280 7 331 l6 92 46 -53 c25
-29 91 -102 145 -163z m-259 -192 l-7 -253 -209 0 -209 0 17 27 c10 15 77 104
148 198 72 94 159 209 195 257 64 85 65 86 68 55 2 -18 1 -146 -3 -284z"/>
</g>
</svg>
