<?xml version="1.0" standalone="no"?>
<!DOCTYPE svg PUBLIC "-//W3C//DTD SVG 20010904//EN"
 "http://www.w3.org/TR/2001/REC-SVG-20010904/DTD/svg10.dtd">
<svg version="1.0" xmlns="http://www.w3.org/2000/svg"
 width="500.000000pt" height="500.000000pt" viewBox="0 0 500.000000 500.000000"
 preserveAspectRatio="xMidYMid meet">

<g transform="translate(0.000000,500.000000) scale(0.100000,-0.100000)"
fill="#ff5555" stroke="none">
<path d="M1906 4775 l-47 -65 -265 0 c-254 0 -264 1 -264 19 0 11 -7 27 -16
36 -20 20 -44 3 -44 -31 0 -21 -5 -24 -37 -24 -47 0 -66 -12 -61 -36 2 -15 14
-20 52 -22 l48 -3 -7 -406 -8 -406 -30 -43 c-35 -50 -31 -79 9 -71 l26 5 -7
-292 c-3 -160 -10 -650 -15 -1089 -6 -511 -13 -804 -20 -816 -7 -13 -7 -22 0
-26 22 -14 11 -80 -20 -117 -32 -39 -135 -175 -350 -461 l-125 -166 -362 -1
-363 0 0 -30 0 -30 335 0 c184 0 335 -4 335 -8 0 -4 -5 -13 -10 -18 -15 -15
-1 -44 20 -44 10 0 30 16 44 35 l27 35 234 0 234 0 3 -57 c2 -47 6 -58 22 -61
26 -5 36 15 36 71 l0 47 1448 0 c796 0 1633 3 1860 7 l412 6 0 24 0 23 -1544
0 -1543 0 4 23 c3 16 -15 42 -69 102 -40 45 -163 182 -273 304 -110 123 -219
245 -243 270 l-43 46 7 595 c3 327 9 849 13 1160 l7 565 70 98 c38 54 76 109
84 121 30 44 316 459 366 529 l50 72 165 6 c90 3 449 7 798 8 l634 1 -4 -517
-4 -518 25 0 25 0 9 518 9 517 41 0 c51 0 82 20 72 45 -6 17 -46 18 -867 11
l-860 -8 31 46 c33 48 36 79 9 84 -11 2 -33 -21 -63 -63z m-98 -142 c-8 -10
-41 -56 -73 -103 -32 -47 -119 -173 -194 -280 -74 -107 -153 -221 -174 -252
-22 -32 -41 -58 -43 -58 -2 0 -4 160 -4 355 l0 355 252 0 c238 0 250 -1 236
-17z m-324 -3428 c55 -60 129 -144 165 -185 36 -40 91 -101 121 -135 30 -33
68 -75 84 -93 l30 -32 -302 0 -302 0 0 238 c0 132 3 280 7 331 l6 92 46 -53
c25 -29 91 -102 145 -163z m-259 -192 l-7 -253 -209 0 -209 0 17 27 c10 15 77
104 148 198 72 94 159 209 195 257 64 85 65 86 68 55 2 -18 1 -146 -3 -284z"/>
</g>
</svg>
