<?xml version="1.0" standalone="no"?>
<!DOCTYPE svg PUBLIC "-//W3C//DTD SVG 20010904//EN"
 "http://www.w3.org/TR/2001/REC-SVG-20010904/DTD/svg10.dtd">
<svg version="1.0" xmlns="http://www.w3.org/2000/svg"
 width="500.000000pt" height="500.000000pt" viewBox="0 0 500.000000 500.000000"
 preserveAspectRatio="xMidYMid meet">

<g transform="translate(0.000000,500.000000) scale(0.100000,-0.100000)"
fill="#ff8080" stroke="none">
<path d="M1906 4775 l-47 -65 -265 0 c-254 0 -264 1 -264 19 0 11 -7 27 -16
36 -20 20 -44 3 -44 -31 0 -21 -5 -24 -37 -24 -47 0 -66 -12 -61 -36 2 -15 14
-20 52 -22 l48 -3 -7 -406 -8 -406 -30 -43 c-35 -50 -31 -79 9 -71 l26 5 -7
-287 c-3 -157 -10 -647 -15 -1089 -6 -515 -13 -809 -20 -821 -7 -13 -7 -22 0
-26 5 -3 10 -22 10 -41 0 -28 -22 -63 -131 -206 -72 -95 -186 -246 -252 -335
l-122 -162 -362 -1 -363 0 0 -30 0 -30 335 0 c184 0 335 -4 335 -8 0 -4 -5
-13 -10 -18 -15 -15 -1 -44 20 -44 10 0 30 16 44 35 l27 35 234 0 234 0 3 -57
c2 -47 6 -58 22 -61 26 -5 36 15 36 71 l0 47 1448 0 c796 0 1633 3 1860 7
l412 6 0 24 0 23 -1544 0 -1543 0 4 23 c3 16 -15 42 -69 102 -40 45 -163 182
-273 304 -110 123 -219 245 -243 270 l-43 46 7 595 c3 327 9 849 13 1160 l7
565 70 98 c38 54 76 109 84 121 30 44 316 459 366 529 l50 72 165 6 c90 3 484
7 875 8 616 1 713 3 724 16 7 8 9 22 6 31 -6 16 -71 16 -867 10 l-860 -8 31
46 c33 48 36 79 9 84 -11 2 -33 -21 -63 -63z m-98 -142 c-8 -10 -41 -56 -73
-103 -32 -47 -119 -173 -194 -280 -74 -107 -153 -221 -174 -252 -22 -32 -41
-58 -43 -58 -2 0 -4 160 -4 355 l0 355 252 0 c238 0 250 -1 236 -17z m-324
-3428 c55 -60 129 -143 165 -184 65 -74 147 -165 205 -228 l30 -33 -302 0
-302 0 0 233 c0 127 3 276 7 330 l6 98 46 -53 c25 -29 91 -102 145 -163z
m-259 -192 l-7 -253 -209 0 -209 0 17 27 c10 15 77 104 148 198 72 94 159 209
195 257 64 85 65 86 68 55 2 -18 1 -146 -3 -284z"/>
</g>
</svg>
