<?xml version="1.0" standalone="no"?>
<!DOCTYPE svg PUBLIC "-//W3C//DTD SVG 20010904//EN"
 "http://www.w3.org/TR/2001/REC-SVG-20010904/DTD/svg10.dtd">
<svg version="1.0" xmlns="http://www.w3.org/2000/svg"
 width="500.000000pt" height="500.000000pt" viewBox="0 0 500.000000 500.000000"
 preserveAspectRatio="xMidYMid meet">

<g transform="translate(0.000000,500.000000) scale(0.100000,-0.100000)"
fill="#ffaaaa" stroke="none">
<path d="M1283 4772 c-11 -7 -17 -336 -43 -2460 -6 -482 -13 -770 -20 -782 -7
-12 -7 -21 0 -25 5 -3 10 -22 10 -41 0 -28 -22 -63 -131 -206 -72 -95 -186
-246 -252 -335 l-122 -162 -362 -1 -363 0 0 -30 0 -30 335 0 c184 0 335 -4
335 -8 0 -4 -5 -13 -11 -19 -16 -16 -4 -43 19 -43 11 0 32 16 46 35 l27 35
234 0 234 0 3 -57 c3 -54 5 -58 28 -58 23 0 25 4 28 57 l3 58 1852 1 c1019 1
1855 1 1860 0 4 0 7 13 7 29 l0 30 -1544 0 -1543 0 4 22 c3 17 -16 44 -73 108
-70 77 -231 257 -403 449 -36 41 -85 95 -109 120 l-43 46 6 525 c3 289 10 860
15 1270 17 1379 17 1460 0 1470 -9 5 -21 6 -27 2z m197 -3562 c52 -59 127
-142 165 -186 63 -71 119 -133 209 -231 l30 -33 -302 0 -302 0 0 233 c0 127 3
276 7 330 l6 98 46 -53 c25 -29 89 -100 141 -158z m-255 -197 l-7 -253 -214 0
c-203 0 -213 1 -198 18 14 15 164 211 354 464 64 85 65 86 68 55 2 -18 1 -146
-3 -284z"/>
</g>
</svg>
